<svg width="17" height="18" viewBox="0 0 17 18" fill="none" xmlns="http://www.w3.org/2000/svg">
<g clip-path="url(#clip0_1042_36)">
<path d="M11.2637 3.13307C11.2637 4.29433 10.3231 5.23489 9.16188 5.23489C8.00062 5.23489 7.06006 4.29433 7.06006 3.13307C7.06006 1.97181 8.00062 1.03125 9.16188 1.03125C10.3231 1.03125 11.2637 1.97181 11.2637 3.13307Z" fill="#FFCB46"/>
<path d="M4.95654 8.31761C4.95654 6.82675 7.75722 6.07568 9.16018 6.07568C10.5631 6.07568 13.3638 6.82675 13.3638 8.31761V8.31761C13.3638 8.93671 12.8619 9.4386 12.2428 9.4386H6.07753C5.45842 9.4386 4.95654 8.93671 4.95654 8.31761V8.31761Z" fill="#FFCB46"/>
<path d="M6.79149 6.58593C6.79149 7.68095 5.90458 8.56786 4.80956 8.56786C3.71455 8.56786 2.82764 7.68095 2.82764 6.58593C2.82764 5.49092 3.71455 4.604 4.80956 4.604C5.90458 4.604 6.79149 5.49092 6.79149 6.58593Z" fill="#A4FFC3"/>
<path d="M15.0185 6.58593C15.0185 7.68095 14.1316 8.56786 13.0366 8.56786C11.9416 8.56786 11.0547 7.68095 11.0547 6.58593C11.0547 5.49092 11.9416 4.604 13.0366 4.604C14.1316 4.604 15.0185 5.49092 15.0185 6.58593Z" fill="white"/>
<path d="M0.845215 11.4749C0.845215 10.0691 3.48613 9.36084 4.80907 9.36084C6.13201 9.36084 8.77293 10.0691 8.77293 11.4749V11.4749C8.77293 12.0587 8.29967 12.5319 7.71589 12.5319H1.90225C1.31847 12.5319 0.845215 12.0587 0.845215 11.4749V11.4749Z" fill="#A4FFC3"/>
<path d="M9.07227 11.4749C9.07227 10.0691 11.7132 9.36084 13.0361 9.36084C14.3591 9.36084 17 10.0691 17 11.4749V11.4749C17 12.0587 16.5267 12.5319 15.9429 12.5319H10.1293C9.54552 12.5319 9.07227 12.0587 9.07227 11.4749V11.4749Z" fill="white"/>
<path d="M11.146 9.06542C11.146 10.1604 10.2591 11.0474 9.16406 11.0474C8.06904 11.0474 7.18213 10.1604 7.18213 9.06542C7.18213 7.97041 8.06904 7.0835 9.16406 7.0835C10.2591 7.0835 11.146 7.97041 11.146 9.06542Z" fill="#FF8585"/>
<path d="M5.19775 13.9544C5.19775 12.5486 7.83867 11.8403 9.16161 11.8403C10.4845 11.8403 13.1255 12.5486 13.1255 13.9544V13.9544C13.1255 14.5382 12.6522 15.0114 12.0684 15.0114H6.25479C5.67101 15.0114 5.19775 14.5382 5.19775 13.9544V13.9544Z" fill="#FF8585"/>
</g>
<rect x="0.15" y="0.4" width="16.7" height="16.7" rx="1.85" stroke="#DFE2FF" stroke-width="0.3"/>
<defs>
<clipPath id="clip0_1042_36">
<rect y="0.25" width="17" height="17" rx="2" fill="white"/>
</clipPath>
</defs>
</svg>
